<?xml version="1.0" encoding="utf-8"?>
<!-- Generator: Adobe Illustrator 19.1.0, SVG Export Plug-In . SVG Version: 6.00 Build 0)  -->
<!DOCTYPE svg PUBLIC "-//W3C//DTD SVG 1.1//EN" "http://www.w3.org/Graphics/SVG/1.1/DTD/svg11.dtd">
<svg version="1.1" id="FINAL_back" xmlns="http://www.w3.org/2000/svg" xmlns:xlink="http://www.w3.org/1999/xlink" x="0px" y="0px"
	 viewBox="0 0 124.7 37" enable-background="new 0 0 124.7 37" xml:space="preserve">
<path fill="currentColor" d="M52.3,29.7c0,0.1,0,0.1,0,0.2c0,0.1,0,0.2,0,0.2l-2.8-3.5c0,0-0.1-0.2-0.3-0.2h-0.5v5.3h0.9v-3.2
	c0-0.1,0-0.1,0-0.2c0-0.1,0-0.2,0-0.2l2.7,3.5c0,0.1,0.1,0.1,0.2,0.1c0.1,0,0.1,0,0.2,0h0.5v-5.3h-0.9V29.7z"/>
<polygon fill="currentColor" points="59.3,31.7 62.7,31.7 62.7,31 60.3,31 60.3,29.5 62.2,29.5 62.2,28.7 60.3,28.7 60.3,27.3 62.7,27.3 
	62.7,26.5 59.3,26.5 "/>
<polygon fill="currentColor" points="68.1,27.3 69.7,27.3 69.7,31.7 70.7,31.7 70.7,27.3 72.3,27.3 72.3,26.5 68.1,26.5 "/>
<path fill="currentColor" d="M84.1,26.6c-0.1,0.1-0.1,0.2-0.2,0.2L83,29.8c0,0.1,0,0.2-0.1,0.2c0,0.1,0,0.2-0.1,0.3
	c0-0.2-0.1-0.4-0.1-0.5l-1-3.1c0-0.1-0.1-0.2-0.1-0.2c-0.1-0.1-0.2-0.1-0.3-0.1h-0.2c-0.1,0-0.2,0-0.3,0.1c-0.1,0.1-0.1,0.1-0.1,0.2
	l-1,3.1c0,0.1-0.1,0.2-0.1,0.3c0,0.1,0,0.2-0.1,0.3c0-0.1,0-0.2-0.1-0.3c0-0.1,0-0.2-0.1-0.3l-0.9-3.1c0-0.1-0.1-0.2-0.2-0.2
	c-0.1-0.1-0.2-0.1-0.3-0.1h-0.8l1.6,5.3H80l1.2-3.6c0,0,0-0.1,0-0.1c0-0.1,0-0.1,0-0.2c0,0.1,0,0.1,0,0.2c0,0.1,0,0.1,0,0.1l1.1,3.6
	h0.9l1.6-5.3h-0.7C84.2,26.5,84.1,26.5,84.1,26.6z"/>
<path fill="currentColor" d="M104.1,29.5c0.2-0.1,0.3-0.1,0.5-0.2c0.1-0.1,0.3-0.2,0.4-0.3c0.1-0.1,0.2-0.3,0.2-0.4
	c0.1-0.2,0.1-0.3,0.1-0.5c0-0.2,0-0.4-0.1-0.6c-0.1-0.2-0.2-0.3-0.4-0.5c-0.2-0.1-0.4-0.2-0.6-0.3c-0.3-0.1-0.6-0.1-0.9-0.1h-1.6
	v5.3h1v-2.1h0.4c0.1,0,0.2,0,0.2,0.1c0.1,0,0.1,0.1,0.1,0.1l1.1,1.7c0,0.1,0.1,0.1,0.2,0.1c0.1,0,0.1,0.1,0.2,0.1h0.9l-1.3-1.9
	C104.3,29.7,104.2,29.6,104.1,29.5z M103.7,28.9c-0.1,0-0.3,0.1-0.5,0.1h-0.6v-1.7h0.6c0.4,0,0.6,0.1,0.8,0.2
	c0.2,0.1,0.3,0.3,0.3,0.6c0,0.1,0,0.3-0.1,0.4c0,0.1-0.1,0.2-0.2,0.3C103.9,28.8,103.8,28.9,103.7,28.9z"/>
<path fill="currentColor" d="M113.9,29.1c-0.1-0.1-0.1-0.1-0.2-0.1c0.1,0,0.1-0.1,0.2-0.1c0.1,0,0.1-0.1,0.2-0.2l1.8-2.2h-0.8
	c-0.1,0-0.2,0-0.3,0c-0.1,0-0.1,0.1-0.2,0.2l-1.4,1.8c0,0.1-0.1,0.1-0.2,0.1c-0.1,0-0.1,0-0.2,0h-0.2v-2.2h-1v5.3h1v-2.3h0.3
	c0.1,0,0.2,0,0.3,0c0.1,0,0.1,0.1,0.2,0.1l1.5,1.9c0,0.1,0.1,0.1,0.1,0.1c0.1,0,0.1,0,0.3,0h0.9l-1.8-2.5
	C114,29.2,114,29.1,113.9,29.1z"/>
<path fill="currentColor" d="M124.6,29.5c-0.1-0.2-0.2-0.3-0.3-0.4c-0.1-0.1-0.2-0.2-0.4-0.3c-0.1-0.1-0.3-0.1-0.4-0.2
	c-0.2-0.1-0.3-0.1-0.4-0.1c-0.1,0-0.3-0.1-0.4-0.2c-0.1-0.1-0.2-0.1-0.3-0.2c-0.1-0.1-0.1-0.2-0.1-0.3c0-0.1,0-0.2,0.1-0.3
	c0-0.1,0.1-0.2,0.2-0.2c0.1-0.1,0.2-0.1,0.3-0.1c0.1,0,0.2,0,0.4,0c0.2,0,0.3,0,0.4,0.1c0.1,0,0.2,0.1,0.3,0.1
	c0.1,0,0.2,0.1,0.2,0.1c0.1,0,0.1,0.1,0.2,0.1c0,0,0.1,0,0.1,0c0,0,0.1-0.1,0.1-0.1l0.2-0.5c-0.2-0.2-0.4-0.3-0.7-0.4
	c-0.3-0.1-0.5-0.1-0.9-0.1c-0.3,0-0.5,0-0.7,0.1c-0.2,0.1-0.4,0.2-0.5,0.3c-0.1,0.1-0.3,0.3-0.3,0.5c-0.1,0.2-0.1,0.4-0.1,0.6
	c0,0.2,0,0.4,0.1,0.6c0.1,0.2,0.2,0.3,0.3,0.4c0.1,0.1,0.2,0.2,0.4,0.3c0.1,0.1,0.3,0.1,0.4,0.2c0.2,0,0.3,0.1,0.4,0.1
	c0.1,0,0.3,0.1,0.4,0.2c0.1,0.1,0.2,0.1,0.3,0.2c0.1,0.1,0.1,0.2,0.1,0.3c0,0.2-0.1,0.4-0.2,0.6c-0.2,0.1-0.4,0.2-0.6,0.2
	c-0.2,0-0.3,0-0.5-0.1c-0.1,0-0.2-0.1-0.3-0.2c-0.1-0.1-0.2-0.1-0.2-0.2c-0.1,0-0.1-0.1-0.2-0.1c0,0-0.1,0-0.1,0
	c0,0-0.1,0.1-0.1,0.1l-0.3,0.5c0.1,0.1,0.2,0.2,0.3,0.3c0.1,0.1,0.3,0.2,0.4,0.2c0.1,0.1,0.3,0.1,0.5,0.1c0.2,0,0.3,0,0.5,0
	c0.3,0,0.5,0,0.8-0.1c0.2-0.1,0.4-0.2,0.6-0.4c0.2-0.2,0.3-0.3,0.4-0.5c0.1-0.2,0.1-0.4,0.1-0.7C124.7,29.9,124.7,29.7,124.6,29.5z"
	/>
<path fill="currentColor" d="M93.1,26.4c-1.5,0-2.7,1.2-2.7,2.7c0,1.5,1.2,2.7,2.7,2.7c1.5,0,2.7-1.2,2.7-2.7
	C95.7,27.6,94.5,26.4,93.1,26.4z M93.1,31c-1,0-1.9-0.8-1.9-1.9c0-1,0.8-1.9,1.9-1.9c1,0,1.9,0.8,1.9,1.9C94.9,30.1,94.1,31,93.1,31
	z"/>
<path fill="currentColor" d="M56.8,5.1c-4.4,0-8,3.6-8,8s3.6,8,8,8c4.4,0,8-3.6,8-8S61.3,5.1,56.8,5.1z M56.8,17.5c-2.4,0-4.4-2-4.4-4.4
	c0-2.4,2-4.4,4.4-4.4c2.4,0,4.4,2,4.4,4.4C61.3,15.5,59.3,17.5,56.8,17.5z"/>
<circle fill="currentColor" cx="12.1" cy="18.5" r="4.2"/>
<circle fill="currentColor" cx="3.3" cy="23.5" r="3.3"/>
<circle fill="currentColor" cx="20.8" cy="23.5" r="3.3"/>
<circle fill="currentColor" cx="12.1" cy="8.3" r="3.3"/>
<path fill="currentColor" d="M3.3,16.8c1.8,0,3.3-1.5,3.3-3.3c0-0.9-0.3-1.6-0.9-2.2l0,0C5,10.5,4.6,9.5,4.6,8.4c0-1.1,0.4-2.1,1.1-2.8
	l0,0C6.2,5,6.6,4.2,6.6,3.3C6.6,1.5,5.1,0,3.3,0C1.5,0,0,1.5,0,3.3C0,4.2,0.3,5,0.9,5.5l0,0c0.7,0.7,1.1,1.7,1.1,2.8
	c0,1.1-0.4,2.1-1.1,2.8l0,0C0.3,11.8,0,12.6,0,13.4C0,15.3,1.5,16.8,3.3,16.8z"/>
<path fill="currentColor" d="M31.1,15.6c-0.7-0.4-1.6-0.5-2.4-0.4l0,0c-1,0.2-2,0.1-3-0.5c-0.9-0.6-1.6-1.4-1.9-2.4l0,0
	c-0.2-0.8-0.8-1.4-1.5-1.9c-1.6-0.9-3.6-0.4-4.5,1.2c-0.9,1.6-0.4,3.6,1.2,4.5c0.7,0.4,1.6,0.5,2.4,0.4l0,0c1-0.2,2.1-0.1,3,0.5
	c0.9,0.5,1.6,1.4,1.9,2.4l0,0c0.2,0.8,0.8,1.4,1.5,1.9c1.6,0.9,3.6,0.4,4.5-1.2C33.2,18.6,32.7,16.5,31.1,15.6z"/>
<path fill="currentColor" d="M10.4,25.8c-0.7,0.4-1.3,1.1-1.5,1.9l0,0c-0.3,1-1,1.8-1.9,2.4c-0.9,0.5-2,0.7-3,0.5l0,0
	c-0.8-0.2-1.6-0.1-2.4,0.4c-1.6,0.9-2.1,2.9-1.2,4.5c0.9,1.6,2.9,2.1,4.5,1.2c0.7-0.4,1.3-1.1,1.5-1.9l0,0c0.3-1,1-1.8,1.9-2.4
	c0.9-0.5,2-0.7,3-0.5l0,0c0.8,0.2,1.6,0.1,2.4-0.4c1.6-0.9,2.1-2.9,1.2-4.5C14.1,25.4,12,24.9,10.4,25.8z"/>
<path fill="currentColor" d="M92.4,17.9C92.4,17.9,92.5,17.8,92.4,17.9c0.2-0.2,0.3-0.4,0.4-0.5c0-0.1,0.1-0.1,0.1-0.2
	c0.1-0.1,0.2-0.3,0.2-0.4c0.1-0.1,0.1-0.2,0.1-0.3c0.1-0.1,0.1-0.2,0.2-0.4c0.1-0.1,0.1-0.3,0.1-0.4c0-0.1,0.1-0.2,0.1-0.3
	c0-0.2,0.1-0.3,0.1-0.5c0-0.1,0-0.2,0.1-0.3c0-0.2,0.1-0.4,0.1-0.5c0-0.1,0-0.1,0-0.2c0-0.3,0-0.5,0-0.8c0,0,0,0,0,0l0,0
	c0,0,0,0,0,0c0-0.2,0-0.5,0-0.7c0-0.1,0-0.2,0-0.3c0-0.2,0-0.3-0.1-0.5c0-0.1,0-0.2-0.1-0.3c0-0.1-0.1-0.3-0.1-0.4
	c0-0.1-0.1-0.2-0.1-0.3c0-0.1-0.1-0.2-0.1-0.3c0-0.1-0.1-0.2-0.2-0.4c0-0.1-0.1-0.2-0.1-0.3C93.1,9.4,93,9.2,93,9.1
	c0-0.1-0.1-0.1-0.1-0.2c-0.1-0.2-0.2-0.3-0.3-0.5c0,0,0,0,0,0c-1.5-2-3.8-3.3-6.5-3.3c0,0,0,0,0,0h0h-3.1h-0.6h-2.5h-0.5v16h0.5h2.5
	h0.6H86h0l0,0C88.6,21.1,91,19.8,92.4,17.9z M86,8.7c2.4,0,4.4,2,4.4,4.4c0,2.4-2,4.4-4.4,4.4h0h-3.1V8.7H86L86,8.7z"/>
<path fill="currentColor" d="M122.9,17.9C122.9,17.9,122.9,17.8,122.9,17.9c0.2-0.2,0.3-0.4,0.4-0.5c0-0.1,0.1-0.1,0.1-0.2
	c0.1-0.1,0.2-0.3,0.2-0.4c0.1-0.1,0.1-0.2,0.1-0.3c0.1-0.1,0.1-0.2,0.2-0.4c0.1-0.1,0.1-0.3,0.1-0.4c0-0.1,0.1-0.2,0.1-0.3
	c0-0.2,0.1-0.3,0.1-0.5c0-0.1,0-0.2,0.1-0.3c0-0.2,0.1-0.4,0.1-0.6c0-0.1,0-0.1,0-0.2c0-0.3,0-0.5,0-0.8c0,0,0,0,0,0l0,0
	c0,0,0,0,0,0c0-0.3,0-0.5,0-0.7c0-0.1,0-0.2,0-0.3c0-0.2,0-0.3-0.1-0.5c0-0.1,0-0.2-0.1-0.3c0-0.1-0.1-0.3-0.1-0.4
	c0-0.1-0.1-0.2-0.1-0.3c0-0.1-0.1-0.2-0.1-0.3c0-0.1-0.1-0.2-0.2-0.4c0-0.1-0.1-0.2-0.1-0.3c-0.1-0.1-0.1-0.3-0.2-0.4
	c0-0.1-0.1-0.1-0.1-0.2c-0.1-0.2-0.2-0.3-0.3-0.5c0,0,0,0,0,0c-1.5-2-3.8-3.3-6.5-3.3c0,0,0,0,0,0h0h-3.1h-0.6h-2.5h-0.5v16h0.5h2.5
	h0.6h3.1h0l0,0C119.1,21.1,121.4,19.8,122.9,17.9z M116.5,8.7c2.4,0,4.4,2,4.4,4.4c0,2.4-2,4.4-4.4,4.4h0h-3.1V8.7H116.5L116.5,8.7z
	"/>
</svg>
